<svg width="189" height="51" viewBox="0 0 189 51" xmlns="http://www.w3.org/2000/svg">
<path fill="#2F333D" fill-rule="evenodd" clip-rule="evenodd" d="M51.1758 12.6225C52.0265 15.3099 52.4436 18.1595 52.3538 21.1349C51.9101 35.2489 40.103 46.329 25.971 45.8893C11.8437 45.4523 0.74504 33.6451 1.18673 19.5345C1.2659 17.1085 1.68695 14.7691 2.38674 12.5686C0.967889 15.6837 0.125098 19.1367 0.0133464 22.778C-0.448967 37.5452 11.1566 49.8851 25.9364 50.3474C40.707 50.8071 53.0582 39.2181 53.5205 24.4469C53.6562 20.2356 52.8008 16.2265 51.1758 12.6225Z"/>
<path fill="#2F333D" fill-rule="evenodd" clip-rule="evenodd" d="M35.323 25.4163C35.6775 25.9784 36.243 27.0454 36.4884 28.4882C36.6507 29.4487 36.5962 30.0295 36.5782 30.3986C36.5536 30.8257 36.3261 32.047 36.3141 32.0536C36.3101 32.0556 36.7638 31.3645 37.0977 30.6933C37.4183 30.0454 37.8294 29.057 37.9279 28.7603C38.2332 27.8503 38.48 26.9483 38.6283 26.041C39.1345 22.9492 38.6682 19.9352 37.5121 17.2259C36.1492 14.035 33.7977 11.2638 30.5223 9.40524C26.3835 7.05512 21.7259 6.54225 17.5658 7.71633C14.7633 8.50589 12.1411 10.0192 10.0611 12.2542C9.22626 13.1529 8.43202 14.2013 7.81007 15.352C4.55797 21.3674 5.0675 28.5574 8.91695 33.7153C12.7218 39.3321 19.0571 42.9674 26.3609 43.0772C38.2591 43.2528 48.1359 33.7219 48.3062 21.8397C48.4838 9.95137 38.9802 0.169762 27.0833 0.00279935C22.6026 -0.0690412 18.4099 1.24536 14.9336 3.54226C17.319 2.30035 20.007 1.50012 22.8833 1.29725C33.7664 0.51698 43.2933 8.48464 44.043 18.9448C44.3317 22.9798 43.2102 27.1964 40.9691 30.5197C38.7441 33.823 35.6829 36.4705 31.7569 37.6818C25.1636 39.7173 19.991 35.5426 19.713 30.2497C19.6518 29.0636 19.8806 27.5417 20.599 26.1208C21.789 23.7627 24.4126 21.6015 27.9593 21.5443C31.0631 21.4937 33.8443 23.0835 35.323 25.4163Z"/>
<path d="M80.4752 16.5745C80.4752 21.4463 76.4894 25.3204 71.7054 25.3204C66.9233 25.3204 62.9375 21.4463 62.9375 16.5745C62.9375 11.6794 66.8541 7.7594 71.7054 7.7594C76.5566 7.7594 80.4752 11.6794 80.4752 16.5745ZM66.0579 16.5026C66.0579 19.6277 68.6315 22.2925 71.7054 22.2925C74.7806 22.2925 77.3528 19.6277 77.3528 16.5026C77.3528 13.3397 74.8484 10.7907 71.7054 10.7907C68.563 10.7907 66.0579 13.3397 66.0579 16.5026Z" fill="#2F333D"/>
<path d="M84.971 20.171C84.971 21.516 86.0652 22.2923 87.3171 22.2923C88.5024 22.2923 89.5035 21.4043 89.5035 20.171C89.5035 18.3291 87.955 17.7803 86.5661 17.3273C85.4492 16.9621 84.4927 16.6435 83.6499 15.7774C82.8297 14.934 82.3295 13.704 82.3295 12.5419C82.3295 9.78806 84.6071 7.75989 87.2951 7.75989C89.89 7.75989 92.2375 9.90112 92.2142 12.5419H89.0033C88.9567 11.4949 88.0914 10.7905 87.1122 10.7905C86.0871 10.7905 85.4279 11.5641 85.4492 12.5666C85.4279 13.7972 86.5661 14.2741 87.5679 14.6153C88.7519 15.0251 89.89 15.3677 90.8459 16.1646C92.0552 17.1204 92.6233 18.3497 92.6233 19.9901C92.6233 22.9954 90.1414 25.3202 87.1574 25.3202C84.2878 25.3202 81.7148 23.1098 81.7148 20.171H84.971Z" fill="#2F333D"/>
<path d="M96.4991 11.1096H93.4033V8.07837H102.764V11.1096H99.6195V24.909H96.4991V11.1096Z" fill="#2F333D"/>
<path d="M104.448 8.07849H109.324C110.917 8.10111 112.421 8.19291 113.696 9.26119C114.902 10.267 115.655 11.8388 115.655 13.4093C115.655 14.6366 115.086 16.1645 114.265 17.0758C113.446 17.9639 112.421 18.4408 111.281 18.6936L115.836 24.9091H111.988L107.569 18.4641V24.9091H104.448V8.07849ZM109.276 16.096C110.097 16.096 111.146 15.9816 111.761 15.3876C112.259 14.912 112.533 14.2741 112.533 13.5683C112.533 12.8386 112.215 12.1109 111.622 11.6758C110.893 11.131 110.165 11.0858 109.299 11.1098H107.569V16.096H109.276Z" fill="#2F333D"/>
<path d="M123.386 8.07867H125.823L132.908 24.9093H129.469L127.647 20.5596H121.681L119.812 24.9093H116.373L123.386 8.07867ZM126.417 17.5297L124.618 12.4284L122.819 17.5297H126.417Z" fill="#2F333D"/>
<path d="M130.564 8.07855H133.842L138.374 20.8795L142.907 8.07855H146.186L139.672 24.9092H137.099L130.564 8.07855Z" fill="#2F333D"/>
<path d="M149.906 20.171C149.906 21.516 151 22.2923 152.252 22.2923C153.439 22.2923 154.44 21.4043 154.44 20.171C154.44 18.3291 152.89 17.7803 151.5 17.3273C150.386 16.9621 149.429 16.6435 148.586 15.7774C147.765 14.934 147.266 13.704 147.266 12.5419C147.266 9.78806 149.541 7.75989 152.23 7.75989C154.826 7.75989 157.173 9.90112 157.149 12.5419H153.937C153.893 11.4949 153.027 10.7905 152.046 10.7905C151.022 10.7905 150.363 11.5641 150.386 12.5666C150.363 13.7972 151.5 14.2741 152.503 14.6153C153.687 15.0251 154.826 15.3677 155.782 16.1646C156.99 17.1204 157.56 18.3497 157.56 19.9901C157.56 22.9954 155.077 25.3202 152.094 25.3202C149.224 25.3202 146.649 23.1098 146.649 20.171H149.906Z" fill="#2F333D"/>
<path d="M159.727 8.07855H162.848V15.3677L168.087 8.07855H171.822L165.466 16.3449L171.822 24.9092H168.087L162.848 17.5296V24.9092H159.727V8.07855Z" fill="#2F333D"/>
<path d="M179.481 8.07867H181.918L189 24.9093H185.563L183.74 20.5596H177.774L175.905 24.9093H172.468L179.481 8.07867ZM182.511 17.5297L180.713 12.4284L178.912 17.5297H182.511Z" fill="#2F333D"/>
<path d="M67.9771 42.4898C65.7008 42.4898 64.1416 41.1182 64.1416 38.0477V31.0073H65.2738V38.0477C65.2738 40.3539 66.2203 41.4535 67.9924 41.4535C69.7352 41.4535 70.6964 40.3539 70.6964 38.0477V31.0073H71.8292V38.0477C71.8292 41.1182 70.27 42.4898 67.9771 42.4898Z" fill="#2F333D"/>
<path d="M87.049 42.2938L80.3246 32.3685V42.2938H79.1924V31.0075H80.7203L87.049 40.3674V31.0075H88.1804V42.2938H87.049Z" fill="#2F333D"/>
<path d="M96.6731 31.0074H95.543V42.2957H96.6731V31.0074Z" fill="#2F333D"/>
<path d="M108.777 42.2938H107.678L103.031 31.0075H104.267L108.242 40.8882L112.229 31.0075H113.452L108.777 42.2938Z" fill="#2F333D"/>
<path d="M119.81 42.2938V31.0075H125.983V32.0319H120.941V36.0796H125.816V37.1033H120.941V41.2701H125.983V42.2938H119.81Z" fill="#2F333D"/>
<path d="M137.365 38.0778L140.529 42.2938H139.123L135.318 37.1778C138.48 37.1778 139.553 36.6264 139.553 34.5989C139.553 32.7197 138.39 32.0319 135.761 32.0319H134.172V42.2938H133.043V31.0075H135.839C139.383 31.0075 140.698 32.2927 140.698 34.6441C140.698 36.6443 139.537 37.8483 137.365 38.0778Z" fill="#2F333D"/>
<path d="M146.459 42.2938V41.2701L152.005 32.0319H146.628V31.0075H153.273V32.0319L147.743 41.2701H153.442V42.2938H146.459Z" fill="#2F333D"/>
<path d="M160.868 31.0074H159.738V42.2957H160.868V31.0074Z" fill="#2F333D"/>
<path d="M170.892 32.0319V42.2938H169.763V32.0319H167.179V31.0076H173.476V32.0319H170.892Z" fill="#2F333D"/>
<path d="M187.763 42.2936L186.127 38.4894H180.869L179.219 42.2936H178.029L182.873 31.0073H184.142L189 42.2936H187.763ZM183.513 32.2925L181.299 37.4683H185.686L183.513 32.2925Z" fill="#2F333D"/>
<path d="M177.661 5.40715L183.728 3.60583L184.435 5.95395L178.324 7.55108L177.661 5.40715Z" fill="#2F333D"/>
</svg>
